# xmcd
#
# Track frame offsets:
#	150
#	15895
#	35477
#	57505
#	74945
#	90587
#	107665
#	129770
#	147595
#	161267
#	183317
#	200985
#	217782
#	245062
#	268287
#	314825
#
# Disc length: 4425 seconds
#
# Revision: 1
# Processed by: cddbd v1.5.2PL0 Copyright (c) Steve Scherf et al.
# Submitted via: audiograbber 1.83.01
#
DISCID=f4114710
DTITLE=Knights Of The Blues Table - knights of the blues table
DYEAR=1997
DGENRE=Blues
TTITLE0=Cyril Davies, Clem Clempson, Jack Bruce - Send For Me
TTITLE1=Georgie Fame - If You Live
TTITLE2=Duffy Power - Go Down Sunshine
TTITLE3=Chris Jagger (Feat. Mick Jagger) - Racketeers Blues
TTITLE4=Pete Brown - Rocks In My Bed
TTITLE5=Miller Anderson - Don't Let Me Be Misunderstood
TTITLE6=Maggie Bell, Big Jim Sullivan - Blind Man
TTITLE7=Peter Green, Nigel Watson - Travellin' Riverside Blues
TTITLE8=Tony (TS) McPhee - Drop Down Mama
TTITLE9=Clem Clempson, Jack Bruce, Mark Feldham - I've Got News For You
TTITLE10=Nine Below Zero - Nine Below Zero
TTITLE11=The Pretty Things - Judgement Day
TTITLE12=Paul Jones, Otis Grand - Play On Little Girl - T-Bone Shuffle
TTITLE13=Mick Clarke, Lou Martin - One More Mile
TTITLE14=Mick Taylor, Max Middleton - You Shook Me
TTITLE15=Cyril Davies - K.C. Moan
EXTD=VICEROY-20.05.1997 -(290.25.001)
EXTT0=
EXTT1=
EXTT2=
EXTT3=
EXTT4=
EXTT5=
EXTT6=
EXTT7=
EXTT8=
EXTT9=
EXTT10=
EXTT11=
EXTT12=
EXTT13=
EXTT14=
EXTT15=
PLAYORDER=
